
<svg width="127" height="114" xmlns="http://www.w3.org/2000/svg"><path d="M77.279 2.448c4.702.706 9.504 2.348 12.008 3.114 5.045 1.542 13.235 6.335 16.127 8.634 1.368 1.087 4.245 3.934 5.359 5.367 1.085 1.396 3.158 4.42 4.481 6.283 2.105 3.075 4.584 7.655 6.687 11.87 2.349 4.709 2.51 6.073 3.22 10.01l1.553 6.94c.146 1.2.267 5.602-2.317 6.219-2.583.617-4.971-.575-6.097-2.317-1.558-2.411-1.343-5.833-3.105-9.75-1.374-3.166-1.975-7.767-4.169-11.076l-1.721-2.91c-3.045-4.688-6.219-8.409-8.112-10.836-1.667-2.039-4.78-4.811-7.731-6.783-2.729-1.655-7.141-3.542-10.323-4.514-1.014-.33-5.354-1.606-8.051-1.965-3.66-.411-6.068-.99-9.546-1.235-4.294-.303-6.354-.685-11.924-.034-2.11.572-5.453.799-8.462 1.95-2.43.991-5.81 2.592-9.121 4.537-3.563 1.954-8.972 5.95-12.559 9.362-3.615 3.863-5.423 5.936-7.916 10.833-1.104 2.423-3.239 6.171-4.1 8.817-.588 2.686-1.71 7.696-1.521 10.129.085 4.359-.296 5.257.031 8.82.012 3.208 1.065 5.432 1.503 8.056.375 1.813 2.114 8.086 3.19 9.542 4.891 10.538 11.456 15.102 18.772 18.394 2.062 1.05 8.515 2.777 10.382 3.272 3.183.574 7.372.957 11.404 1.035 4.242.083 10.089-.492 13.637-1.798 3.84-1.412 8.28-3.419 8.229-3.363 1.782-.982 4.501-2.585 5.348-3.29 1.637-1.049 2.623-1.455 3.593-2.465 1.399-1.224 2.246-1.929 3.306-3.446a69.052 69.052 0 0 1 2.44-3.321c.982-1.609 1.546-3.305 2.505-5.403 1.147-3.103.969-2.954 1.187-6.25.206-.955-.022-4.165-.195-4.71-.517-2.962-.334-5.575-1.012-8.451-.916-3.891-1.677-6.803-2.846-10.536-1.099-4.203-4.327-8.097-6.75-10.878-1.501-1.724-6.158-5.796-12.619-8.339-1.819-.612-4.797-1.306-6.688-1.651-4.037-.422-4.694-.151-8.559.132-1.33.232-4.418.863-5.553 1.262-3.32 1.166-4.541 1.907-7.935 3.986-1.58.917-2.771 1.619-4.386 3.133-1.289 1.193-2.21 3.221-3.254 4.41-1.43 1.946-3.022 4.542-4.09 7.342-1.158 2.785-1.531 6.706-1.355 9.229 0 1.923.523 5.443.731 6.213.207.771.727 3.161.84 3.641.113.479 1.356 3.008 1.527 3.374.701 1.492 2.043 3.636 4.304 5.825 1.668 1.822 4.893 3.61 7.307 4.303 2.165 1.188 5.816 1.39 7.836 1.394.994-.06 3.533-.216 4.858-.534 2.687-.645 3.183-.662 5.952-1.865 2.485-1.152 4.171-1.567 5.902-2.846 0 0 2.376-1.862 3.456-3.224.57-.719 1.547-4.145 1.373-6.267-.081-2.905.342-4.553-.251-6.943-.593-2.39-1.605-5.16-2.702-6.867-1.111-1.729-3.5-3.414-6.219-4.755-1.522-.752-5.129-1.449-6.659-1.63-2.907-.345-5.338.974-6.814 2.483-1.28 1.463-3.81 4.502-2.802 7.644.912 2.843 2.013 5.872 6.277 5.647 2.926.609 6.311-.275 7.438.244 1.673.95 2.316 3.048 1.708 4.511-.424 2.821-3.126 3.159-6.01 3.374-2.58.432-9.133-.831-10.573-1.91-.966-.574-2.445-1.953-3.487-2.884-.749-.67-1.597-2.164-2.176-3.237-.711-1.318-1.07-2.288-1.253-3.147-.217-1.02-.664-2.967-.495-4.914.114-1.313.466-1.872.816-3.792.697-2.177 1.563-3.834 2.956-5.722 1.815-1.842 4.12-4.035 6.37-5.054 1.984-1.048 5.46-1.434 8.605-1.25 2.551.244 5.569.555 7.564 1.224 3.415 1.22 4.391 1.463 7.194 3.231 2.369 1.466 4.752 4.163 6.082 6.397 2.829 5.789 4.452 12.229 3.272 20.898-.097 1.465-.553 2.896-1.466 4.835-.843 1.79-2.322 3.967-4.541 5.606-.894.827-2.303 1.845-3.45 2.441-1.628.988-2.723 1.502-4.423 2.356-1.492.701-3.231 1.503-5.499 2.133-2.458.972-4.344 1.012-7.435 1.473-3.043.763-11.368.218-16.327-1.969-3.385-1.423-7.183-3.932-10.07-6.99-1.604-1.681-3.173-4.731-3.634-5.355-2.296-4.414-2.746-8.566-3.114-9.438-.5-1.185-.749-3.842-1.084-5.66-.378-2.038-.144-10.585 1.914-16.071 1.16-2.184 1.839-4.131 2.624-5.154 1.411-2.007 2.093-3.261 3.293-4.684 1.809-2.194 3.126-3.984 4.888-5.246 4.49-3.651 8.241-5.577 13.314-7.987 6.304-2.567 8.197-2.036 14.163-1.941 2.684.023 6.59.867 8.51 1.217 3.566.475 5.609 1.334 8.021 2.007 2.579.72 4.07 1.869 6.186 3.148 1.742 1.125 3.792 2.666 5.146 3.917 3.464 2.54 5.135 5.21 7.258 8.489.385.55 2.906 5.923 3.308 7.419.186.749.757 2.9 1.123 4.157.471 1.994.699 3.76 1.224 6.01.47 2.318 1.27 6.695 1.617 10.786.583 3.509-.351 10.672-.902 12.871-1.227 4.1-3.373 9.104-7.611 13.923-1.8 2.134-3.714 3.788-5.925 5.583-1.691 1.411-3.142 2.232-5.754 3.792-3.548 2.117-6.248 3.469-11.221 5.413-2.025.65-4.576 1.505-7.326 2.074-5.327.492-10.801.964-16.776.254-5.976-.711-11.962-2.395-15.498-3.481-1.951-.732-5.731-2.317-7.316-3.17-1.031-.524-4.488-2.888-5.075-3.457-2.369-1.466-7.671-6.452-11.094-11.1-.75-1.436-3.447-5.745-4.032-7.633-1.555-3.193-2.639-7.055-3.276-8.705-.672-3.851-1.807-6.331-2.25-10.197.051-.91-.183-3.051-.389-4.236.301-2.646-.101-5.14.424-8.02.461-2.431 1.072-3.446 1.217-5.643.142-.94 1.352-3.767 1.674-5.025.976-2.072 1.219-3.779 2.493-6.094 1.836-3.608 3.755-7.759 6.704-11.385.842-1.124 3.23-3.821 4.044-4.756 1.924-1.923 3.053-2.227 5.235-4.157.227-.143 1.668-1.786 3.177-2.351 2.501-1.932 4.662-2.641 7.042-4.398 4.77-2.376 6.509-3.178 11.244-5.148 2.736-.976 6.552-1.516 7.926-2.049 2.614-.162 5.267-.996 8.017-.83 3.087-.029 6.198.191 9.3.473 2.099.129 4.828.231 8.53 1.034z" fill-rule="nonzero" fill="#61DAFB"/></svg>